<svg xmlns="http://www.w3.org/2000/svg" xmlns:xlink="http://www.w3.org/1999/xlink" viewBox="0 0 500 500"><defs><clipPath id="freepik--clip-path--inject-101"><path d="M399.25,96.35v13.41a3.49,3.49,0,0,1-1.58,2.73l-14.08,8.24c-.87.5-1.58.09-1.58-.91V106.4a3.44,3.44,0,0,1,1.57-2.72c3.84-2.22,10.24-6,14.08-8.24C398.54,94.94,399.25,95.34,399.25,96.35Z" style="fill:#306C9A"></path></clipPath></defs><g id="freepik--Floor--inject-101"><ellipse id="freepik--floor--inject-101" cx="250" cy="338.22" rx="243.71" ry="136.02" style="fill:#f5f5f5"></ellipse></g><g id="freepik--Device--inject-101"><g id="freepik--device--inject-101"><g id="freepik--Mobile--inject-101"><path d="M181.42,35,64.51,102.47a12.76,12.76,0,0,0-6.37,10.58V380.17c0,4.34,2.67,9.39,6,11.3s9,1.7,12.77-.47l116.48-67.24a15.07,15.07,0,0,0,6.8-11.77V45.8c0-4.33-2.68-9.39-6-11.3S185.17,32.81,181.42,35Z" style="fill:#37474f"></path><path d="M75.26,391.77c-3.63,1.42-8.29,1.35-11.14-.3-3.3-1.9-6-7-6-11.3V113.05a12.12,12.12,0,0,1,1.72-5.82l11,6.22a13.21,13.21,0,0,0-3.16,7.92V385.68C67.66,390.9,71,393.37,75.26,391.77Z" style="fill:#263238"></path><path d="M73.65,111a13.3,13.3,0,0,0-6,10.38V385.69c0,5.85,4.15,8.25,9.22,5.32l116.49-67.25a15.07,15.07,0,0,0,6.8-11.77V45.8c0-4.32-3.06-6.08-6.8-3.92Z" style="fill:#455a64"></path><path d="M79.8,127.76l-6.46,3.73V372.73L79.8,369l109.5-63.21,6.46-3.73V60.82l-6.45,3.72Z" style="fill:#37474f"></path><path d="M187.58,296.65V65.53L79.8,127.76l-6.46,3.73V362.63L181.12,300.4C184.68,298.35,187.58,296.65,187.58,296.65Z" style="fill:#306C9A"></path><path d="M187.58,296.65V65.53L79.8,127.76l-6.46,3.73V362.63L181.12,300.4C184.68,298.35,187.58,296.65,187.58,296.65Z" style="fill:#fff;opacity:0.6000000000000001"></path><path d="M126,88.23l19.66-11.35c1.17-.68,2.12-.2,2.12,1.07a4.57,4.57,0,0,1-2.12,3.53L126,92.83c-1.17.67-2.13.19-2.13-1.08A4.55,4.55,0,0,1,126,88.23Z"></path><path d="M159.74,68.72c1.1-.63,2-.12,2,1.15a4.39,4.39,0,0,1-2,3.45c-1.1.64-2,.12-2-1.15A4.41,4.41,0,0,1,159.74,68.72Z"></path><path d="M167.71,64.13c1.1-.64,2-.12,2,1.15a4.41,4.41,0,0,1-2,3.45c-1.1.63-2,.12-2-1.15A4.39,4.39,0,0,1,167.71,64.13Z"></path><path d="M104,100.93c1.1-.64,2-.12,2,1.15a4.41,4.41,0,0,1-2,3.45c-1.1.64-2,.12-2-1.15A4.39,4.39,0,0,1,104,100.93Z"></path><path d="M111.94,96.33c1.1-.63,2-.12,2,1.15a4.39,4.39,0,0,1-2,3.45c-1.1.64-2,.12-2-1.15A4.42,4.42,0,0,1,111.94,96.33Z"></path></g><g id="freepik--Milk--inject-101"><path id="freepik--shadow--inject-101" d="M80.17,235.54a3.86,3.86,0,0,1-3.79-4.09V177.71a6.59,6.59,0,0,1,.93-3.25,6.47,6.47,0,0,1,2.33-2.4l38.94-22.45a4.5,4.5,0,0,1,2.22-.62,3.67,3.67,0,0,1,3.46,2.35l0,0a5.82,5.82,0,0,1,.28,1.76v53.75a7,7,0,0,1-3.24,5.64L82.39,234.92a6.15,6.15,0,0,1-.7.33A4.17,4.17,0,0,1,80.17,235.54Z" style="opacity:0.1"></path><g id="freepik--Box--inject-101"><path d="M126.91,156a4.19,4.19,0,0,0-1.89-3.28l-1.55-.89a4.13,4.13,0,0,0-3.78,0L80.76,174.3a4.18,4.18,0,0,0-1.89,3.28v53.74a4.18,4.18,0,0,0,1.89,3.28l1.54.89a4.19,4.19,0,0,0,3.78,0L125,213a4.19,4.19,0,0,0,1.89-3.27Z" style="fill:#fafafa"></path><path d="M78.87,231.32a4.18,4.18,0,0,0,1.89,3.28l1.54.89a4.25,4.25,0,0,0,3.46.15c-.89.34-1.57-.17-1.57-1.25V180.65a3.78,3.78,0,0,1,.56-1.86l-5.33-3.08a3.94,3.94,0,0,0-.55,1.87Z" style="fill:#e0e0e0"></path><path d="M126.85,155.49c-.22-.81-1-1.06-1.83-.56L86.08,177.38a3.78,3.78,0,0,0-1.33,1.41l-5.32-3.07a3.78,3.78,0,0,1,1.33-1.41l38.93-22.45a4.19,4.19,0,0,1,3.78,0l1.55.89A4.19,4.19,0,0,1,126.85,155.49Z" style="fill:#f0f0f0"></path></g><g id="freepik--milk--inject-101"><path d="M94.56,223a.48.48,0,0,1-.23-.07.45.45,0,0,1-.23-.39V194.44a.45.45,0,0,1,.23-.39l22.21-12.83a.47.47,0,0,1,.46,0,.46.46,0,0,1,.23.4V209.7a.47.47,0,0,1-.23.4L94.78,222.92A.47.47,0,0,1,94.56,223ZM95,194.71v27l21.3-12.3v-27Z" style="fill:#306C9A"></path><path d="M103.72,217.69a.46.46,0,0,1-.46-.45v-28l-4-5.76L95,194.61a.46.46,0,0,1-.59.26.45.45,0,0,1-.26-.59l4.6-11.88a.45.45,0,0,1,.37-.29.46.46,0,0,1,.43.19l4.57,6.59a.5.5,0,0,1,.08.26v28.09A.46.46,0,0,1,103.72,217.69Z" style="fill:#306C9A"></path><path d="M103.72,189.61a.44.44,0,0,1-.37-.2l-4.57-6.59a.45.45,0,0,1-.07-.36.46.46,0,0,1,.22-.29L112,174.62a.45.45,0,0,1,.6.13l4.57,6.59a.47.47,0,0,1,.07.36.45.45,0,0,1-.22.3L104,189.55A.46.46,0,0,1,103.72,189.61Zm-3.91-6.9,4,5.84,12.28-7.1-4-5.83Z" style="fill:#306C9A"></path><path d="M99.15,183a.45.45,0,0,1-.45-.46v-3.07a.46.46,0,0,1,.23-.4L112,171.54a.47.47,0,0,1,.46,0,.48.48,0,0,1,.23.4V175a.46.46,0,1,1-.92,0v-2.28l-12.16,7v2.81A.45.45,0,0,1,99.15,183Z" style="fill:#306C9A"></path><path d="M106.72,210.74l.89-2.56.06-.13a.26.26,0,0,1,.14-.15l.31-.18a.1.1,0,0,1,.09,0,.11.11,0,0,1,0,.1v4a.27.27,0,0,1,0,.14.18.18,0,0,1-.09.1l-.37.22s-.07,0-.09,0a.11.11,0,0,1,0-.1v-2.42l-.6,1.74s0,.09-.07.14a.23.23,0,0,1-.11.11l-.24.14a.09.09,0,0,1-.11,0s0,0-.06-.06l-.61-1.05v2.43a.39.39,0,0,1,0,.14.45.45,0,0,1-.09.1l-.38.22a.08.08,0,0,1-.09,0,.13.13,0,0,1,0-.1v-4a.39.39,0,0,1,0-.14.45.45,0,0,1,.09-.1l.32-.18c.06,0,.11,0,.13,0l.07.06Z" style="fill:#306C9A"></path><path d="M109.1,211.49a.1.1,0,0,1-.09,0,.15.15,0,0,1,0-.1v-4a.43.43,0,0,1,0-.14.3.3,0,0,1,.09-.1l.38-.22a.06.06,0,0,1,.08,0,.11.11,0,0,1,0,.1v4a.35.35,0,0,1-.12.24Z" style="fill:#306C9A"></path><path d="M112.49,208.76s.07,0,.09,0a.11.11,0,0,1,0,.1v.44a.27.27,0,0,1,0,.14.22.22,0,0,1-.09.1l-2,1.17a.06.06,0,0,1-.08,0s0-.05,0-.09v-4a.25.25,0,0,1,0-.14.21.21,0,0,1,.08-.1l.38-.22a.08.08,0,0,1,.09,0,.13.13,0,0,1,0,.1v3.4Z" style="fill:#306C9A"></path><path d="M115.54,207.52a.05.05,0,0,1,0,0,0,0,0,0,1,0,0,.25.25,0,0,1,0,.14.18.18,0,0,1-.09.1l-.44.26a.17.17,0,0,1-.15,0l-.06,0-1.1-1v1.62a.31.31,0,0,1,0,.13.35.35,0,0,1-.09.11l-.38.21a.07.07,0,0,1-.09,0,.11.11,0,0,1,0-.09v-4a.37.37,0,0,1,0-.14.3.3,0,0,1,.09-.1l.38-.22a.08.08,0,0,1,.09,0,.13.13,0,0,1,0,.1v1.46l1-2.08a.38.38,0,0,1,.09-.15.43.43,0,0,1,.12-.11l.42-.24a.1.1,0,0,1,.09,0,.12.12,0,0,1,0,.1.26.26,0,0,1,0,.11l-1.25,2.54Z" style="fill:#306C9A"></path></g></g><g id="freepik--Apple--inject-101"><path id="freepik--shadow--inject-101" d="M134.1,204.4a3.86,3.86,0,0,1-3.79-4.09V146.57a6.59,6.59,0,0,1,.93-3.25,6.4,6.4,0,0,1,2.33-2.4l38.94-22.45a4.37,4.37,0,0,1,2.21-.63,3.66,3.66,0,0,1,3.46,2.35h0a6,6,0,0,1,.28,1.76v53.74a7,7,0,0,1-3.24,5.64l-39,22.45a7,7,0,0,1-.69.33A4.19,4.19,0,0,1,134.1,204.4Z" style="opacity:0.1"></path><g id="freepik--box--inject-101"><path d="M181,124.85a4.17,4.17,0,0,0-1.9-3.28l-1.54-.89a4.13,4.13,0,0,0-3.78,0l-38.93,22.44a4.17,4.17,0,0,0-1.9,3.28v53.74a4.19,4.19,0,0,0,1.9,3.28l1.54.89a4.19,4.19,0,0,0,3.78,0l38.93-22.45a4.17,4.17,0,0,0,1.9-3.28Z" style="fill:#fafafa"></path><path d="M132.91,200.14a4.19,4.19,0,0,0,1.9,3.28l1.54.89a4.25,4.25,0,0,0,3.46.15c-.89.34-1.57-.17-1.57-1.25V149.47a3.87,3.87,0,0,1,.55-1.86l-5.32-3.08a4,4,0,0,0-.56,1.87Z" style="fill:#e0e0e0"></path><path d="M180.89,124.31c-.22-.81-.95-1.06-1.82-.56L140.13,146.2a3.7,3.7,0,0,0-1.33,1.41l-5.33-3.07a3.88,3.88,0,0,1,1.34-1.41l38.92-22.45a4.22,4.22,0,0,1,3.79,0l1.55.89A4.15,4.15,0,0,1,180.89,124.31Z" style="fill:#f0f0f0"></path></g><g id="freepik--apple--inject-101"><path d="M153.3,188.5c-2.19,0-4.24-1.2-6.08-3.56-5.28-6.78-2.43-21.53,3.49-26.41,4-3.28,6.09-2.82,7.54-1.85a9.54,9.54,0,0,0,3.22-2.94,15.74,15.74,0,0,1,7.15-5.55,3.8,3.8,0,0,1,4.29,1c2.92,3.06,3.61,11.91-.29,21.43-5.54,13.5-11.17,14.11-12.53,14.06-.67.83-3.29,3.78-6.72,3.82Zm2.7-31.61c-1.11,0-2.58.58-4.71,2.34-5.51,4.55-8.27,18.83-3.35,25.15,1.68,2.15,3.54,3.22,5.42,3.21,3.45-.05,6.13-3.62,6.16-3.66a.49.49,0,0,1,.46-.18c.05,0,5.9.87,11.79-13.48,3.77-9.17,3.2-17.6.48-20.45a2.91,2.91,0,0,0-3.32-.77,14.79,14.79,0,0,0-6.76,5.27,11.38,11.38,0,0,1-3.1,3l.17.15c.72.6,1.2,1,1.79.88.82-.12,2.16-1.15,3.19-3.11a.45.45,0,1,1,.8.43c-1,2-2.54,3.38-3.85,3.58a3.17,3.17,0,0,1-2.52-1.08A4,4,0,0,0,156,156.89Z" style="fill:#306C9A"></path><path d="M161.28,159.12a.45.45,0,0,1-.46-.43c-.25-6.13,3.47-15.51,7.1-17.94a.45.45,0,1,1,.5.76c-3.36,2.25-6.92,11.38-6.69,17.14a.45.45,0,0,1-.43.47Z" style="fill:#306C9A"></path><path d="M159.86,153.13h-.07a2.13,2.13,0,0,1-1.8-1.22c-1.14-2.12-.55-5.61-.53-5.76a.54.54,0,0,1,.27-.37c.11-.06,2.7-1.49,4.56-.19,1.67,1.17,1.29,4.13.29,5.74A3.49,3.49,0,0,1,159.86,153.13Zm-1.38-6.53c-.1.81-.34,3.31.46,4.8a1.06,1.06,0,0,0,.89.65,2.43,2.43,0,0,0,1.84-1.29h0c.84-1.35,1-3.57,0-4.29S159.07,146.33,158.48,146.6Z" style="fill:#306C9A"></path></g></g><g id="freepik--Fish--inject-101"><path id="freepik--shadow--inject-101" d="M80.17,309a3.86,3.86,0,0,1-3.79-4.08V251.16a6.61,6.61,0,0,1,.93-3.25,6.47,6.47,0,0,1,2.33-2.4l38.94-22.45a4.5,4.5,0,0,1,2.22-.62,3.67,3.67,0,0,1,3.46,2.35l0,0a5.82,5.82,0,0,1,.28,1.76v53.75a7,7,0,0,1-3.24,5.64L82.39,308.37a6.15,6.15,0,0,1-.7.33A4.17,4.17,0,0,1,80.17,309Z" style="opacity:0.1"></path><g id="freepik--box--inject-101"><path d="M126.91,229.45a4.19,4.19,0,0,0-1.89-3.27l-1.55-.89a4.13,4.13,0,0,0-3.78,0L80.76,247.73A4.16,4.16,0,0,0,78.87,251v53.74A4.18,4.18,0,0,0,80.76,308l1.54.89a4.19,4.19,0,0,0,3.78,0L125,286.47a4.19,4.19,0,0,0,1.89-3.28Z" style="fill:#fafafa"></path><path d="M78.87,304.75A4.18,4.18,0,0,0,80.76,308l1.54.89a4.25,4.25,0,0,0,3.46.15c-.89.34-1.57-.17-1.57-1.25V254.08a3.78,3.78,0,0,1,.56-1.86l-5.33-3.08a3.94,3.94,0,0,0-.55,1.87Z" style="fill:#e0e0e0"></path><path d="M126.85,228.92c-.22-.81-1-1.06-1.83-.56L86.08,250.81a3.78,3.78,0,0,0-1.33,1.41l-5.32-3.07a3.78,3.78,0,0,1,1.33-1.41l38.93-22.45a4.19,4.19,0,0,1,3.78,0l1.55.89A4.19,4.19,0,0,1,126.85,228.92Z" style="fill:#f0f0f0"></path></g><g id="freepik--fish--inject-101"><path d="M98.15,281.93a.4.4,0,0,1-.24-.07.45.45,0,0,1-.22-.4c.34-19.94,14.19-38.36,25.42-40.31a.46.46,0,0,1,.36.08.52.52,0,0,1,.18.33c0,.44.74,10.91-10.27,25.83-7.93,10.74-14.73,14.34-15,14.49A.54.54,0,0,1,98.15,281.93Zm24.6-39.78c-10.65,2.33-23.45,19.62-24.12,38.51,1.93-1.2,7.66-5.2,14-13.81C122.08,254.06,122.74,244.43,122.75,242.15Z" style="fill:#306C9A"></path><path d="M117.92,259.91h0c-4.68-.29-7.15-4.34-6.78-11.13a.45.45,0,0,1,.48-.43.46.46,0,0,1,.43.48c-.34,6.21,1.83,9.92,5.93,10.16a.46.46,0,0,1,.42.49A.45.45,0,0,1,117.92,259.91Z" style="fill:#306C9A"></path><path d="M89.64,287.91a3.74,3.74,0,0,1-2.59-1,.46.46,0,0,1-.09-.55c3.37-6.38,8.41-8.94,11.44-8.12a.46.46,0,0,1,.32.56.44.44,0,0,1-.56.32c-2.67-.72-7.18,1.82-10.22,7.34a3.08,3.08,0,0,0,2.29.45c2.51-.35,5.75-2.8,7.53-5.72a.46.46,0,0,1,.78.48c-1.91,3.12-5.43,5.76-8.19,6.15A5.78,5.78,0,0,1,89.64,287.91Z" style="fill:#306C9A"></path><path d="M99.89,295.39a.59.59,0,0,1-.25-.07c-3.56-2.32-3.65-8.94-1.91-14a.45.45,0,0,1,.57-.29.46.46,0,0,1,.29.58C97,286.19,97.07,292,99.73,294.24c2.56-5.29,2-12,.12-13.71a.44.44,0,0,1,0-.64.45.45,0,0,1,.64,0c2.38,2.24,2.77,9.73-.17,15.29a.46.46,0,0,1-.29.22Z" style="fill:#306C9A"></path><path d="M112.92,263.76h0c-2.84-.11-4.87-3.9-5-7.37a.46.46,0,0,1,.44-.47.44.44,0,0,1,.47.44c.1,3,1.88,6.4,4.11,6.49a.46.46,0,0,1,0,.91Z" style="fill:#306C9A"></path><path d="M109.4,267.83h-.07c-1.81-.29-3.82-3.59-4.13-6a.46.46,0,1,1,.91-.12c.28,2.17,2.1,5,3.37,5.19a.46.46,0,0,1-.08.91Z" style="fill:#306C9A"></path><path d="M106.2,271.82h-.08c-1.51-.27-3.28-3.23-3.55-4.88a.45.45,0,0,1,.38-.52.44.44,0,0,1,.52.37c.26,1.57,1.88,4,2.81,4.13a.46.46,0,0,1-.08.91Z" style="fill:#306C9A"></path><path d="M102.71,275.54h-.1a3.47,3.47,0,0,1-2.35-2.53.46.46,0,0,1,.34-.55.46.46,0,0,1,.55.34,2.62,2.62,0,0,0,1.65,1.85.46.46,0,0,1,.35.54A.45.45,0,0,1,102.71,275.54Z" style="fill:#306C9A"></path><path d="M116.08,251.65a1.16,1.16,0,0,1-.57-.15,1.62,1.62,0,0,1-.68-1.46,3.62,3.62,0,0,1,1.54-2.92,1.29,1.29,0,0,1,1.32-.06,1.59,1.59,0,0,1,.69,1.46,3.6,3.6,0,0,1-1.55,2.91A1.6,1.6,0,0,1,116.08,251.65Zm1-3.83a.56.56,0,0,0-.29.1,2.69,2.69,0,0,0-1.09,2.12c0,.39.12.61.23.67s.3,0,.4-.07a2.71,2.71,0,0,0,1.09-2.12c0-.4-.12-.61-.23-.67A.2.2,0,0,0,117.12,247.82Z" style="fill:#306C9A"></path><path d="M102.15,263.63a.47.47,0,0,1-.42-.27c-.61-1.36-3.43-.64-3.46-.64a.45.45,0,0,1-.45-.13.42.42,0,0,1-.1-.45c.82-2.44,5.57-7.8,9.38-8.52a.45.45,0,0,1,.53.36.44.44,0,0,1-.36.53c-3.1.59-7,4.73-8.35,7.16,1.13-.15,3-.14,3.65,1.32a.45.45,0,0,1-.23.6A.43.43,0,0,1,102.15,263.63Z" style="fill:#306C9A"></path></g></g><g id="freepik--Watermelon--inject-101"><path id="freepik--shadow--inject-101" d="M134.1,277.73a3.86,3.86,0,0,1-3.79-4.09V219.9a6.59,6.59,0,0,1,.93-3.25,6.4,6.4,0,0,1,2.33-2.4l38.94-22.45a4.36,4.36,0,0,1,2.21-.62,3.66,3.66,0,0,1,3.46,2.34h0a6.15,6.15,0,0,1,.28,1.76V249a7,7,0,0,1-3.24,5.64l-39,22.45a7.24,7.24,0,0,1-.69.34A4.4,4.4,0,0,1,134.1,277.73Z" style="opacity:0.1"></path><g id="freepik--box--inject-101"><path d="M181,198.27a4.17,4.17,0,0,0-1.9-3.27l-1.54-.89a4.13,4.13,0,0,0-3.78,0l-38.93,22.44a4.17,4.17,0,0,0-1.9,3.28v53.74a4.2,4.2,0,0,0,1.9,3.28l1.54.89a4.19,4.19,0,0,0,3.78,0l38.93-22.45A4.17,4.17,0,0,0,181,252Z" style="fill:#fafafa"></path><path d="M132.91,273.57a4.2,4.2,0,0,0,1.9,3.28l1.54.89a4.25,4.25,0,0,0,3.46.15c-.89.33-1.57-.17-1.57-1.25V222.9a3.87,3.87,0,0,1,.55-1.86L133.47,218a3.92,3.92,0,0,0-.56,1.87Z" style="fill:#e0e0e0"></path><path d="M180.89,197.74c-.22-.81-.95-1.06-1.82-.56l-38.94,22.45A3.7,3.7,0,0,0,138.8,221L133.47,218a3.91,3.91,0,0,1,1.34-1.42l38.92-22.44a4.22,4.22,0,0,1,3.79,0l1.55.89A4.15,4.15,0,0,1,180.89,197.74Z" style="fill:#f0f0f0"></path></g><g id="freepik--watermelon--inject-101"><path d="M149.81,254.46a12.51,12.51,0,0,1-5.94-1.44.44.44,0,0,1-.2-.59l15.13-33a.42.42,0,0,1,.33-.26.44.44,0,0,1,.41.13l15.14,15.53a.45.45,0,0,1,.06.55c-4.28,7.22-9.71,13-15.3,16.19A19.51,19.51,0,0,1,149.81,254.46Zm-5.13-2.05c4,2,9.09,1.38,14.3-1.63,5.38-3.1,10.62-8.62,14.8-15.57l-14.43-14.8Z" style="fill:#306C9A"></path><path d="M148.58,258.89a14,14,0,0,1-6.66-1.62.44.44,0,0,1-.2-.59l17.08-37.25a.42.42,0,0,1,.33-.26.44.44,0,0,1,.41.13l17.08,17.52a.47.47,0,0,1,.06.56c-4.81,8.13-10.94,14.61-17.24,18.25A22,22,0,0,1,148.58,258.89Zm-5.85-2.23c4.57,2.24,10.32,1.6,16.25-1.82,6.1-3.52,12-9.77,16.74-17.63l-16.37-16.8Z" style="fill:#306C9A"></path><path d="M142.13,257.32a.43.43,0,0,1-.19,0,.45.45,0,0,1-.22-.6l17.08-37.25a.42.42,0,0,1,.33-.26.44.44,0,0,1,.41.13l17.08,17.52a.46.46,0,0,1,0,.65.45.45,0,0,1-.64,0l-16.62-17.05-16.8,36.65A.48.48,0,0,1,142.13,257.32Z" style="fill:#306C9A"></path><path d="M158.89,229.89a.67.67,0,0,1-.45-.16c-.49-.41-.37-1.62.34-3.61a.47.47,0,0,1,.38-.3.46.46,0,0,1,.44.22,4,4,0,0,1,.62,2.65,1.62,1.62,0,0,1-.78,1A1.07,1.07,0,0,1,158.89,229.89Zm.18-.8h0Zm.21-1.5a6.24,6.24,0,0,0-.23,1.3.73.73,0,0,0,.29-.42A1.92,1.92,0,0,0,159.28,227.59Z" style="fill:#306C9A"></path><path d="M158.89,246.54a.72.72,0,0,1-.45-.16c-.49-.41-.37-1.63.34-3.61a.46.46,0,0,1,.38-.3.44.44,0,0,1,.44.21,4.08,4.08,0,0,1,.62,2.66,1.65,1.65,0,0,1-.78,1A1.17,1.17,0,0,1,158.89,246.54Zm.18-.81h0Zm.21-1.5a6.35,6.35,0,0,0-.23,1.3.7.7,0,0,0,.29-.42A1.92,1.92,0,0,0,159.28,244.23Z" style="fill:#306C9A"></path><path d="M167.64,239.34a.56.56,0,0,1-.25-.05c-.71-.27-.78-1.74-.72-2.94a.47.47,0,0,1,.19-.34.43.43,0,0,1,.38-.07c.14,0,1.37.37,1.68,1.28a1.63,1.63,0,0,1-.4,1.57A1.2,1.2,0,0,1,167.64,239.34Zm.14-.86h0Zm-.21-1.43a5.34,5.34,0,0,0,.14,1.28l.1-.11c.22-.29.3-.52.24-.7A1,1,0,0,0,167.57,237.05Z" style="fill:#306C9A"></path><path d="M150.32,249.3h-.1a.82.82,0,0,1-.7-.47c-.4-.87.85-2.78,1.4-3.56a.46.46,0,0,1,.83.24c0,.44.12,2.71-.7,3.5A1,1,0,0,1,150.32,249.3Zm.46-2.07a2.68,2.68,0,0,0-.43,1.22c0-.06,0-.07.07-.11A2.17,2.17,0,0,0,150.78,247.23Z" style="fill:#306C9A"></path><path d="M154.9,240.22a.74.74,0,0,1-.63-.31c-.49-.69.28-2.38,1-3.68a.48.48,0,0,1,.47-.23.46.46,0,0,1,.38.36c.05.23.47,2.3-.2,3.29a1.21,1.21,0,0,1-.83.55A.71.71,0,0,1,154.9,240.22Zm.13-.81h0Zm.36-1.33a4.3,4.3,0,0,0-.37,1.2.33.33,0,0,0,.15-.14A2,2,0,0,0,155.39,238.08Z" style="fill:#306C9A"></path><path d="M162.94,235.64a.59.59,0,0,1-.31-.08c-.55-.29-.66-1.38-.34-3.26a.47.47,0,0,1,.27-.34.45.45,0,0,1,.42,0,2.88,2.88,0,0,1,1.33,1.81,1.7,1.7,0,0,1-.59,1.44A1.16,1.16,0,0,1,162.94,235.64Zm.18-.84h0Zm0-1.53a6.11,6.11,0,0,0,0,1.34l0,0a.87.87,0,0,0,.32-.69A1.23,1.23,0,0,0,163.08,233.27Z" style="fill:#306C9A"></path></g></g><g id="freepik--Button--inject-101"><path id="freepik--shadow--inject-101" d="M101.65,337.06A3.85,3.85,0,0,1,97.86,333V312.2a6.94,6.94,0,0,1,3.26-5.65l60.52-34.81a4.41,4.41,0,0,1,2.22-.63,3.66,3.66,0,0,1,3.45,2.35h.05a6.09,6.09,0,0,1,.28,1.76V296a6.94,6.94,0,0,1-3.24,5.64l-60.54,34.82a7,7,0,0,1-.69.33A4.17,4.17,0,0,1,101.65,337.06Z" style="opacity:0.1"></path><g id="freepik--button--inject-101"><path d="M170,278.13a4.19,4.19,0,0,0-1.9-3.28l-1.54-.89a4.19,4.19,0,0,0-3.78,0l-60.51,34.81a4.19,4.19,0,0,0-1.9,3.28v20.77a4.19,4.19,0,0,0,1.9,3.28l1.54.89a4.19,4.19,0,0,0,3.78,0l60.52-34.81A4.2,4.2,0,0,0,170,298.9Z" style="fill:#306C9A"></path><path d="M170,278.13a4.19,4.19,0,0,0-1.9-3.28l-1.54-.89a4.19,4.19,0,0,0-3.78,0l-60.51,34.81a4.19,4.19,0,0,0-1.9,3.28v20.77a4.19,4.19,0,0,0,1.9,3.28l1.54.89a4.19,4.19,0,0,0,3.78,0l60.52-34.81A4.2,4.2,0,0,0,170,298.9Z" style="opacity:0.15"></path><path d="M100.34,332.82a4.19,4.19,0,0,0,1.9,3.28l1.54.89a4.25,4.25,0,0,0,3.46.15c-.89.34-1.57-.17-1.57-1.25V315.13a3.88,3.88,0,0,1,.55-1.87l-5.32-3.07a3.89,3.89,0,0,0-.56,1.86Z" style="opacity:0.30000000000000004"></path><path d="M169.91,277.59c-.23-.8-1-1.06-1.83-.55l-60.52,34.81a3.7,3.7,0,0,0-1.33,1.41l-5.33-3.07a3.88,3.88,0,0,1,1.34-1.41L162.75,274a4.19,4.19,0,0,1,3.78,0l1.55.9A4.2,4.2,0,0,1,169.91,277.59Z" style="opacity:0.15"></path></g><path d="M111.58,328.38a.17.17,0,0,1-.22,0,.38.38,0,0,1-.1-.3V316.2a.88.88,0,0,1,.1-.4.6.6,0,0,1,.22-.28l3.85-2.22a2.61,2.61,0,0,1,1.34-.43,1.21,1.21,0,0,1,.88.37,2.06,2.06,0,0,1,.47,1,5.28,5.28,0,0,1,.15,1.28,5.8,5.8,0,0,1-.08,1,5,5,0,0,1-.19.78,3.52,3.52,0,0,1-.22.59,3.25,3.25,0,0,1-.18.37,1.28,1.28,0,0,1,.65.78,4.78,4.78,0,0,1,.18,1.46,8.35,8.35,0,0,1-.14,1.55,6.94,6.94,0,0,1-.47,1.55,6.09,6.09,0,0,1-.85,1.4,4.7,4.7,0,0,1-1.29,1.08Zm4.47-11.54a.84.84,0,0,0-.19-.65c-.12-.12-.3-.11-.54,0l-1.85,1.07v2.1l1.85-1.07a1.31,1.31,0,0,0,.54-.6A1.92,1.92,0,0,0,116.05,316.84Zm-2.58,7.61,2-1.14a1.46,1.46,0,0,0,.57-.65,2.19,2.19,0,0,0,.22-.93.9.9,0,0,0-.22-.67c-.14-.13-.33-.13-.57,0l-2,1.14Z" style="fill:#fafafa"></path><path d="M126.61,306.85a.17.17,0,0,1,.22,0,.39.39,0,0,1,.1.3v7.33a10.81,10.81,0,0,1-.26,2.39,9.39,9.39,0,0,1-.75,2.07,7.32,7.32,0,0,1-1.15,1.66,6.3,6.3,0,0,1-1.47,1.19,3.66,3.66,0,0,1-1.48.52,1.6,1.6,0,0,1-1.14-.34,2.44,2.44,0,0,1-.74-1.21,6.84,6.84,0,0,1-.27-2.09v-7.33a1,1,0,0,1,.1-.41.66.66,0,0,1,.23-.28l1.56-.9a.18.18,0,0,1,.23,0,.4.4,0,0,1,.09.29v7.26a2.45,2.45,0,0,0,.35,1.52c.24.28.59.29,1.07,0a2.47,2.47,0,0,0,1.07-1.24,5,5,0,0,0,.35-1.93v-7.26a.85.85,0,0,1,.1-.4.6.6,0,0,1,.22-.28Z" style="fill:#fafafa"></path><path d="M132.88,315.59a1,1,0,0,1-.09.4.55.55,0,0,1-.23.28l-1.56.9a.18.18,0,0,1-.23,0,.41.41,0,0,1-.09-.3V313l-2.76-6.22a.46.46,0,0,1,0-.21.8.8,0,0,1,.08-.33.46.46,0,0,1,.18-.22l1.64-1c.16-.09.28-.1.36,0a.59.59,0,0,1,.14.19l1.5,3.65,1.52-5.39a2.41,2.41,0,0,1,.14-.36.85.85,0,0,1,.36-.39l1.64-.94a.14.14,0,0,1,.18,0,.33.33,0,0,1,.08.24,1.12,1.12,0,0,1-.05.27l-2.76,9.4Z" style="fill:#fafafa"></path><path d="M144.34,309.47q-.21.12-.33,0a.59.59,0,0,1-.16-.17l-2.73-4.7v6.21a.88.88,0,0,1-.1.4.65.65,0,0,1-.22.28l-1.57.9c-.09.05-.16.05-.22,0a.37.37,0,0,1-.1-.29V300.24a.85.85,0,0,1,.1-.4.54.54,0,0,1,.22-.28l1.24-.72c.14-.07.25-.08.33,0a.59.59,0,0,1,.16.16l2.73,4.71v-6.21a1,1,0,0,1,.1-.41.57.57,0,0,1,.23-.27l1.56-.9a.17.17,0,0,1,.23,0,.4.4,0,0,1,.09.29v11.87a1,1,0,0,1-.09.41.63.63,0,0,1-.23.27Z" style="fill:#fafafa"></path><path d="M147.3,299.7a10.3,10.3,0,0,1,.29-2.11,9.19,9.19,0,0,1,.73-2,8.78,8.78,0,0,1,1.14-1.73,6,6,0,0,1,1.56-1.29,3.14,3.14,0,0,1,1.55-.5,1.68,1.68,0,0,1,1.15.4,2.44,2.44,0,0,1,.73,1.16,6.53,6.53,0,0,1,.3,1.77c0,.52,0,1.06,0,1.64s0,1.12,0,1.63a11.06,11.06,0,0,1-.3,2.11,9.47,9.47,0,0,1-.73,2,7.78,7.78,0,0,1-1.15,1.73A6.34,6.34,0,0,1,151,305.8a3.23,3.23,0,0,1-1.56.51,1.69,1.69,0,0,1-1.14-.4,2.64,2.64,0,0,1-.73-1.17,6.18,6.18,0,0,1-.29-1.77c0-.49,0-1,0-1.61S147.28,300.23,147.3,299.7Zm5.24.15c0-.22,0-.47,0-.75s0-.55,0-.83,0-.55,0-.81,0-.49,0-.7a3.33,3.33,0,0,0-.13-.77,1.19,1.19,0,0,0-.28-.5.71.71,0,0,0-.46-.19,1.36,1.36,0,0,0-.65.21,2.36,2.36,0,0,0-.64.54,2.79,2.79,0,0,0-.46.71,3.79,3.79,0,0,0-.29.84,4.53,4.53,0,0,0-.12.91c0,.22,0,.46,0,.73s0,.54,0,.82,0,.56,0,.82,0,.51,0,.72a2.05,2.05,0,0,0,.41,1.29c.24.26.61.25,1.1,0a2.61,2.61,0,0,0,1.1-1.24A5.16,5.16,0,0,0,152.54,299.85Z" style="fill:#fafafa"></path><path d="M161.82,293.22l.77-6.65a1.19,1.19,0,0,1,.14-.47.87.87,0,0,1,.22-.24l1.57-.9a.14.14,0,0,1,.18,0,.29.29,0,0,1,.08.24,1,1,0,0,1,0,.16l-1.54,12.5a1.64,1.64,0,0,1-.19.58,1,1,0,0,1-.41.46l-1,.57c-.16.09-.29.09-.38,0a.6.6,0,0,1-.21-.35l-.9-3.64-.89,4.67a2.39,2.39,0,0,1-.21.6,1,1,0,0,1-.39.44l-1,.58a.36.36,0,0,1-.41,0,.52.52,0,0,1-.19-.37l-1.54-10.72a.76.76,0,0,1,0-.14.8.8,0,0,1,.08-.33.54.54,0,0,1,.18-.23l1.57-.9a.25.25,0,0,1,.22,0c.08,0,.12.13.15.3l.76,5.77.7-3.73c0-.09.06-.23.11-.39a.72.72,0,0,1,.3-.38l1.12-.64q.21-.13.3,0a1,1,0,0,1,.11.27Z" style="fill:#fafafa"></path></g><g id="freepik--Awning--inject-101"><polygon points="73.34 131.49 99.31 167.91 221.74 97.23 195.75 60.82 73.34 131.49" style="fill:#306C9A"></polygon><polygon points="84.45 125.07 95.58 118.64 121.56 155.06 110.43 161.48 84.45 125.07" style="fill:#fafafa"></polygon><polygon points="106.72 112.22 117.85 105.79 143.84 142.21 132.71 148.63 106.72 112.22" style="fill:#fafafa"></polygon><polygon points="129 99.37 140.13 92.94 166.11 129.35 154.98 135.78 129 99.37" style="fill:#fafafa"></polygon><polygon points="151.27 86.52 162.4 80.09 188.38 116.5 177.25 122.93 151.27 86.52" style="fill:#fafafa"></polygon><polygon points="173.54 73.67 184.67 67.24 210.65 103.65 199.52 110.08 173.54 73.67" style="fill:#fafafa"></polygon><path d="M110.43,161.48c0,3.55,2.49,5,5.57,3.21a12.3,12.3,0,0,0,5.56-9.63Z" style="fill:#e0e0e0"></path><path d="M132.69,148.63c0,3.55,2.49,5,5.56,3.21a12.31,12.31,0,0,0,5.57-9.63Z" style="fill:#e0e0e0"></path><path d="M154.94,135.78c0,3.55,2.49,5,5.57,3.22a12.31,12.31,0,0,0,5.56-9.64Z" style="fill:#e0e0e0"></path><path d="M177.2,122.93c0,3.55,2.49,5,5.56,3.22a12.31,12.31,0,0,0,5.56-9.64Z" style="fill:#e0e0e0"></path><path d="M199.45,110.09c0,3.54,2.49,5,5.56,3.21a12.3,12.3,0,0,0,5.57-9.64Z" style="fill:#e0e0e0"></path><path d="M99.31,167.9c0,3.55,2.49,5,5.56,3.22a12.31,12.31,0,0,0,5.56-9.64Z" style="fill:#306C9A"></path><path d="M121.56,155.06c0,3.54,2.49,5,5.56,3.21a12.3,12.3,0,0,0,5.57-9.64Z" style="fill:#306C9A"></path><path d="M143.81,142.21c0,3.55,2.5,5,5.57,3.21a12.3,12.3,0,0,0,5.56-9.64Z" style="fill:#306C9A"></path><path d="M166.07,129.36c0,3.55,2.49,5,5.56,3.21a12.28,12.28,0,0,0,5.57-9.64Z" style="fill:#306C9A"></path><path d="M188.32,116.51c0,3.55,2.49,5,5.57,3.21a12.3,12.3,0,0,0,5.56-9.63Z" style="fill:#306C9A"></path><path d="M210.58,103.66c0,3.55,2.49,5,5.56,3.21a12.28,12.28,0,0,0,5.56-9.63Z" style="fill:#306C9A"></path><g style="opacity:0.15"><path d="M99.31,167.9c0,3.55,2.49,5,5.56,3.22a12.31,12.31,0,0,0,5.56-9.64Z"></path><path d="M121.56,155.06c0,3.54,2.49,5,5.56,3.21a12.3,12.3,0,0,0,5.57-9.64Z"></path><path d="M143.81,142.21c0,3.55,2.5,5,5.57,3.21a12.3,12.3,0,0,0,5.56-9.64Z"></path><path d="M166.07,129.36c0,3.55,2.49,5,5.56,3.21a12.28,12.28,0,0,0,5.57-9.64Z"></path><path d="M188.32,116.51c0,3.55,2.49,5,5.57,3.21a12.3,12.3,0,0,0,5.56-9.63Z"></path><path d="M210.58,103.66c0,3.55,2.49,5,5.56,3.21a12.28,12.28,0,0,0,5.56-9.63Z"></path></g><polygon points="99.31 167.9 73.34 148.63 73.34 131.49 99.31 167.9" style="fill:#306C9A"></polygon><polygon points="99.31 167.9 73.34 148.63 73.34 131.49 99.31 167.9" style="opacity:0.2"></polygon></g></g></g><g id="freepik--Character--inject-101"><g id="freepik--character--inject-101"><path d="M256.43,190c7.39-.5,12.1.48,15.76,9,4.65,10.78,10.61,31,12.2,37.67.74,3.13.73,5.76-2.36,9.3-6.61,7.55-15.31,16.36-15.31,16.36L262,245.8l5.75-8.46-6.93-18.76Z" style="fill:#ffa8a7"></path><path d="M267.76,237.34a34.74,34.74,0,0,0,4,5.58,9.23,9.23,0,0,1-4.9-4.22Z" style="fill:#f28f8f"></path><path d="M191.27,416.64a7.22,7.22,0,0,0-.09,3.87c.37.78,2.69,3.34,7.43,4.27s11.24,0,14-.17,11.61.9,14.4,1.28c4.4.6,7.78-.37,9.42-2a3,3,0,0,0,.66-2.32,11.51,11.51,0,0,0-.47-3.13Z" style="fill:#37474f"></path><path d="M235.93,413.88c.09.37.17.73.24,1.1a18.61,18.61,0,0,1,.41,5.71,5.2,5.2,0,0,1-3.38,2.55c-3.31,1.05-5.83.88-9.5.19a67.47,67.47,0,0,0-11.14-.69c-2.89.2-6.86.75-9.75.49a23.59,23.59,0,0,1-7.17-1.46c-1.93-.83-3.89-1.89-4.36-3.87-.57-4.17,1.18-6,3.17-7.18s4.78-1.08,7.79-1.28c2.72-.18,4.7-.18,7.12-.37a34.11,34.11,0,0,0,6.14-1.17c1.82-.58,3.78-2.59,4.56-2.68,0,0,12.11-.09,13.27,0,1.33.11,1.74,4.26,1.91,5.16.13.7.15,1.46.34,2.14C235.7,413,235.82,413.42,235.93,413.88Z" style="fill:#306C9A"></path><g style="opacity:0.4"><path d="M235.93,413.88c.09.37.17.73.24,1.1a18.61,18.61,0,0,1,.41,5.71,5.2,5.2,0,0,1-3.38,2.55c-3.31,1.05-5.83.88-9.5.19a67.47,67.47,0,0,0-11.14-.69c-2.89.2-6.86.75-9.75.49a23.59,23.59,0,0,1-7.17-1.46c-1.93-.83-3.89-1.89-4.36-3.87-.57-4.17,1.18-6,3.17-7.18s4.78-1.08,7.79-1.28c2.72-.18,4.7-.18,7.12-.37a34.11,34.11,0,0,0,6.14-1.17c1.82-.58,3.78-2.59,4.56-2.68,0,0,12.11-.09,13.27,0,1.33.11,1.74,4.26,1.91,5.16.13.7.15,1.46.34,2.14C235.7,413,235.82,413.42,235.93,413.88Z"></path></g><path d="M198.61,422.67c-.38-3-.88-9.53,4.65-13.29l.71,0a13.76,13.76,0,0,0-7.66,0c-4.43,1.18-6.4,4.76-5.29,8.55C191,417.89,192,421.55,198.61,422.67Z" style="fill:#fafafa"></path><path d="M240.34,350.06c-.39,6.92-6.83,54.13-7.39,56.66-.34,1.51-2.25,3.12-7.22,2.95-3.49-.11-6.24.18-6.1-2.56l-3.51-59.95Z" style="fill:#ffa8a7"></path><path d="M241.49,378c-.18,2.12-.46,4,.41,6.38,1.24,3.36,3.88,4.9,5.43,6.22a45.19,45.19,0,0,1,4.51,5.2c1.51,1.84,1.84,3,4.2,5,1.47,1.21,5.58,2.21,8.11,1.14,2-.84,2.66-1.51,2.54-4.54s-9.79-4.07-9.79-4.07Z" style="fill:#37474f"></path><path d="M265.44,388.36c.82.29,1,1.79,1.15,4.76.1,2.24,1.09,5.53-2.16,6.95-2.63,1.14-6.82.38-8.6-1.74a106.4,106.4,0,0,0-6.86-8.19c-2.74-2.8-5.6-3.74-6.81-9.33-.79-3.6-.17-5.09,2.37-6.12,3.5-1.42,9,3.22,11.74,3.94C258.63,379.26,264.61,388.06,265.44,388.36Z" style="fill:#306C9A"></path><path d="M265.44,388.36c.82.29,1,1.79,1.15,4.76.1,2.24,1.09,5.53-2.16,6.95-2.63,1.14-6.82.38-8.6-1.74a106.4,106.4,0,0,0-6.86-8.19c-2.74-2.8-5.6-3.74-6.81-9.33-.79-3.6-.17-5.09,2.37-6.12,3.5-1.42,9,3.22,11.74,3.94C258.63,379.26,264.61,388.06,265.44,388.36Z" style="opacity:0.4"></path><path d="M269.68,335.18c.46,18.94-2.52,38-3.9,54.34-.24,1.61-8.31,4.91-11,.21-.16-.35-7.53-53.67-7.53-53.67Z" style="fill:#ffa8a7"></path><path d="M243.76,384.94s.27-6.45,9.31-7.53l-.16-1.14a7.77,7.77,0,0,0-3.53-2c-3.14-.81-5.62,0-7.27,2S242.13,383.65,243.76,384.94Z" style="fill:#fafafa"></path><path d="M269.26,323s-.52-13.26-.2-27.52c.2-8.95.38-14.08,0-20.34a143.2,143.2,0,0,0-2.51-20.83s-49.61-9.46-50.21,8.35c-.73,21.34-1.42,63.66-1.47,69.24s.3,9.31.87,21.18c7.9,1.93,19.07.72,25.3-1.61.22-6,.36-9.39.36-9.39l2.44-38.22s.63,7.48,1.06,15.31.3,9.72,1.51,24.16c5,2.31,19.74,2.16,23.7-2.19A156.85,156.85,0,0,0,269.26,323Z" style="fill:#37474f"></path><path d="M215.09,302.42c7,1.66,18.62,1.23,18.62,1.23s-.16,25.09-1.45,28.38-16.19,2.75-18,0C214.28,318.62,215.09,302.42,215.09,302.42Z" style="fill:#263238"></path><path d="M262,279s-6.47,8.89-14.27,12.22l-2.92,26-.95-13,1.8-15.72S255.54,284.19,262,279Z" style="fill:#263238"></path><polygon points="236.28 182.83 236.39 199.09 252.82 198.92 253.09 180.04 236.28 182.83" style="fill:#ffa8a7"></polygon><path d="M269.64,198.21c-1.35-4.43-6-8.07-11.94-8.25-1.32,0-4.75,0-4.75,0-.67,2.74-9.46,4-16.62,2.33-2.16.57-10.59,2.14-12.39,2.74-5.15,1.71-6.19,6.94-7,23.74,0,0-1.36,27.88-.83,48.81,9,4.78,23.84,4.71,33.8,3.7,15.64-1.58,18.67-7.29,18.67-7.29a172.54,172.54,0,0,1-.69-21.75c.19-6.83,2.16-14.07,2.77-21.82C271.56,208.86,270.56,201.25,269.64,198.21Z" style="fill:#306C9A"></path><path d="M269.64,198.21c-1.35-4.43-6-8.07-11.94-8.25-1.32,0-4.75,0-4.75,0-.67,2.74-9.46,4-16.62,2.33-2.16.57-10.59,2.14-12.39,2.74-5.15,1.71-6.19,6.94-7,23.74,0,0-1.36,27.88-.83,48.81,9,4.78,23.84,4.71,33.8,3.7,15.64-1.58,18.67-7.29,18.67-7.29a172.54,172.54,0,0,1-.69-21.75c.19-6.83,2.16-14.07,2.77-21.82C271.56,208.86,270.56,201.25,269.64,198.21Z" style="opacity:0.30000000000000004"></path><path d="M224,162s-4.36,6.58-3.95,7.17,3.82,1,3.82,1Z" style="fill:#f28f8f"></path><path d="M235.8,141c-7.82,1.31-10.71,6-11.86,19.6a121,121,0,0,0-.06,13.15c.5,5.93,1.61,7.42,2.8,8.75s8.37,1.73,11.61,1c4.06-.94,13.24-3.77,17.75-10.07,5.31-7.42,6-16.68,1.88-22.15C248.38,138.44,239,140.43,235.8,141Z" style="fill:#ffa8a7"></path><path d="M226.68,182.47c.9,1,6.26,1.53,9.61,1.27l0-1.93A25,25,0,0,1,226.68,182.47Z" style="fill:#f28f8f"></path><path d="M230.28,153a7.07,7.07,0,0,0,4.43,7.54A9.61,9.61,0,0,0,234,164a2.9,2.9,0,0,0,.3,1.7,1.09,1.09,0,0,0,2,.05,14.57,14.57,0,0,1,1.75-2.75,5.32,5.32,0,0,1,3.4-1.71c4.89-.33,5.24,6.07,3.18,8.63-3.37,4.19-6,1.15-6,1.15s-.84,5.28,4.72,10.52a8.28,8.28,0,0,0,4.38,1.57c1.41.18,3.94.37,5.28-.38,2.73-4.43,8.53-11.84,10.6-15.75,2-3.76,4.33-8.13,3.32-12.51a7.19,7.19,0,0,0-3.27-4.64,9.54,9.54,0,0,0,1-3.93c-.08-2.41-2.52-4.46-4.9-3.39a4.29,4.29,0,0,0-6.85-4.57,4.15,4.15,0,0,0-8.06-1.87,5.69,5.69,0,0,0-10,.85,8.15,8.15,0,0,0-5.59-1.21,5.79,5.79,0,0,0-4.42,3.42,4.52,4.52,0,0,0,1.4,5.23c-1.79.1-3.18,2.48-3.19,4.28C223.08,150.07,224,154.69,230.28,153Z" style="fill:#263238"></path><path d="M167.85,208.43c1.26,2.37,15.2,27.88,19.25,31.74,2.89,2.75,7.35,4.62,12,.65,8.62-7.4,22-19.07,22-19.07,10.28-8.14,11.7-22.95,7-27.7-2.42.13-9.82.68-14.61,6.28-9.82,11.46-20.29,23.23-20.29,23.23-2.57-3.4-4.86-6.08-7.63-9.94-2.21-3.09-5.66-6.32-5.8-10.34-.07-2.1.69-4.19,1-6.25.42-2.68.79-5.33,1.23-8a2.14,2.14,0,0,0-.14-1.58,1.6,1.6,0,0,0-2.18-.07,5.71,5.71,0,0,0-1.53,2.26c-.41.92-.83,1.83-1.25,2.74-.19.43-.48.92-.95.93-1.48,0-1.72-3.12-2.1-4.09a16.23,16.23,0,0,1-.73-3.94c-.22-1.6-.43-3.2-.64-4.79-.06-.46-.17-1-.59-1.21s-1.12.18-1.48.63a6.27,6.27,0,0,0-1.2,2.49c-.49,2.12.12,4.52-1,6.41a12.44,12.44,0,0,1-1.62,1.94,22.09,22.09,0,0,0-1.91,2.61c-1,1.54-1.64,2.8-1.16,4.63A48.45,48.45,0,0,0,167.85,208.43Z" style="fill:#ffa8a7"></path><path d="M193.14,223.56c-2.63,2.88-4.18,8.59-4.18,8.59s-.28-6.05,2.79-10.4Z" style="fill:#f28f8f"></path></g></g><g id="freepik--credit-card--inject-101"><g id="freepik--card-bubble--inject-101"><g id="freepik--Card--inject-101"><path d="M300.63,174.24l-1.93-1.11a2.43,2.43,0,0,1-1.1-1.91V92.75a2.42,2.42,0,0,1,1.1-1.91L400.43,32.09a2.44,2.44,0,0,1,2.2,0l1.93,1.11a2.43,2.43,0,0,1,1.1,1.91v78.48a2.42,2.42,0,0,1-1.1,1.9L302.83,174.24A2.44,2.44,0,0,1,300.63,174.24Z" style="fill:#306C9A"></path><path d="M300.63,174.24l-1.93-1.11a2.43,2.43,0,0,1-1.1-1.91V92.75a2.42,2.42,0,0,1,1.1-1.91L400.43,32.09a2.44,2.44,0,0,1,2.2,0l1.93,1.11a2.43,2.43,0,0,1,1.1,1.91v78.48a2.42,2.42,0,0,1-1.1,1.9L302.83,174.24A2.44,2.44,0,0,1,300.63,174.24Z" style="fill:#fff;opacity:0.5"></path><path d="M302.83,93.22,404.56,34.47c.61-.35,1.1-.06,1.1.64v78.48a2.42,2.42,0,0,1-1.1,1.9L302.83,174.24c-.61.35-1.1.07-1.1-.63V95.13A2.43,2.43,0,0,1,302.83,93.22Z" style="fill:#306C9A"></path><path d="M404.56,34.47c-8.35,5.13-16.76,10.13-25.19,15.11L354,64.4,328.5,79l-12.8,7.19-12.87,7.07,12.56-7.61L328,78.12,353.38,63.3l25.51-14.56C387.41,43.93,396,39.14,404.56,34.47Z" style="fill:#fafafa"></path><path d="M302.05,94l-4.13-2.38a2.27,2.27,0,0,0-.32,1.08v78.48a2.43,2.43,0,0,0,1.1,1.91l1.92,1.11a2.46,2.46,0,0,0,2,.1c-.51.17-.88-.13-.88-.74V95.13A2.17,2.17,0,0,1,302.05,94Z" style="fill:#306C9A"></path><path d="M302.05,94l-4.13-2.38a2.27,2.27,0,0,0-.32,1.08v78.48a2.43,2.43,0,0,0,1.1,1.91l1.92,1.11a2.46,2.46,0,0,0,2,.1c-.51.17-.88-.13-.88-.74V95.13A2.17,2.17,0,0,1,302.05,94Z" style="opacity:0.30000000000000004"></path><polygon points="301.73 104.09 405.66 44.1 405.66 64.58 301.73 124.57 301.73 104.09" style="fill:#455a64"></polygon><g id="freepik--Cards--inject-101"><path d="M399.25,96.35v13.41a3.49,3.49,0,0,1-1.58,2.73l-14.08,8.24c-.87.5-1.58.09-1.58-.91V106.4a3.44,3.44,0,0,1,1.57-2.72c3.84-2.22,10.24-6,14.08-8.24C398.54,94.94,399.25,95.34,399.25,96.35Z" style="fill:#306C9A"></path><g style="clip-path:url(#freepik--clip-path--inject-101)"><path d="M399.25,96.35v13.41a3.49,3.49,0,0,1-1.58,2.73l-14.08,8.24c-.87.5-1.58.09-1.58-.91V106.4a3.44,3.44,0,0,1,1.57-2.72c3.84-2.22,10.24-6,14.08-8.24C398.54,94.94,399.25,95.34,399.25,96.35Z" style="opacity:0.2"></path><polygon points="402.02 98.45 402.38 97.42 379.24 110.89 378.88 111.92 402.02 98.45" style="fill:#fff"></polygon><polygon points="392.98 110.3 393.7 109.48 393.7 102.64 392.99 103.47 392.98 110.3" style="fill:#fff"></polygon><polygon points="387.56 113.55 388.28 112.73 388.28 105.91 387.56 106.73 387.56 113.55" style="fill:#fff"></polygon><polygon points="402.02 105.3 402.38 104.27 379.24 117.74 378.88 118.77 402.02 105.3" style="fill:#fff"></polygon></g><path d="M308.31,112.67q-.87-.6-.87-2.67a7.62,7.62,0,0,1,.85-3.67,6.27,6.27,0,0,1,2.41-2.49,5,5,0,0,1,1.2-.52,1.77,1.77,0,0,1,.91,0,.13.13,0,0,1,.09.14.69.69,0,0,1-.06.24l-.31.91a.42.42,0,0,1-.13.21.24.24,0,0,1-.15,0,2.09,2.09,0,0,0-1.37.35,3.61,3.61,0,0,0-1.44,1.55,5.33,5.33,0,0,0-.52,2.42c0,1,.18,1.56.54,1.82s.85.22,1.47-.13a4.94,4.94,0,0,0,1.43-1.26.46.46,0,0,1,.15-.16s.08,0,.13.06l.35.6a.31.31,0,0,1,0,.13.62.62,0,0,1-.1.24,6.33,6.33,0,0,1-2.18,1.93C309.69,113,308.88,113.08,308.31,112.67Z" style="fill:#306C9A"></path><path d="M313.84,110.27c-.06,0-.09-.16-.09-.34v-7.14a1.06,1.06,0,0,1,.09-.45.77.77,0,0,1,.31-.31l2.29-1.32q2.3-1.32,2.29,1.35a4.77,4.77,0,0,1-.27,1.61,4.4,4.4,0,0,1-.8,1.37l.95,2.22a.77.77,0,0,1,0,.15.35.35,0,0,1-.19.33l-1,.58a.4.4,0,0,1-.19.07s-.08,0-.11-.13l-.83-2.17-1.07.62v2.36a1,1,0,0,1-.09.45.8.8,0,0,1-.32.31l-.68.39C314,110.3,313.9,110.32,313.84,110.27Zm2.38-5.56a1.91,1.91,0,0,0,1-1.8c0-.41-.08-.67-.23-.78s-.4-.06-.71.12l-1.07.62v2.41Z" style="fill:#306C9A"></path><path d="M319.57,107c-.07,0-.1-.17-.1-.34V99.49a.88.88,0,0,1,.1-.45.73.73,0,0,1,.31-.32l3.75-2.16q.21-.12.3-.06a.52.52,0,0,1,.08.35v.44a1.13,1.13,0,0,1-.08.45.84.84,0,0,1-.3.29L321,99.57v1.9l1.86-1.08c.15-.08.25-.1.3,0s.08.16.08.34v.42a1,1,0,0,1-.08.45.65.65,0,0,1-.3.29L321,102.91v1.92l2.66-1.53c.14-.09.24-.1.3-.06a.54.54,0,0,1,.08.35V104a1.08,1.08,0,0,1-.08.44.82.82,0,0,1-.3.28l-3.74,2.16C319.73,107,319.63,107,319.57,107Z" style="fill:#306C9A"></path><path d="M324.75,104a.43.43,0,0,1-.09-.33V96.49a1.06,1.06,0,0,1,.09-.45.77.77,0,0,1,.31-.31l1.9-1.09c1-.6,1.81-.72,2.35-.37s.8,1.23.8,2.64a7.26,7.26,0,0,1-.81,3.56,6,6,0,0,1-2.34,2.35l-1.9,1.1C324.92,104,324.81,104,324.75,104Zm2.28-2.64a2.88,2.88,0,0,0,1.2-1.29,5.3,5.3,0,0,0,.4-2.28c0-1-.13-1.56-.4-1.8s-.66-.21-1.2.1l-.88.51v5.27Z" style="fill:#306C9A"></path><path d="M331,100.4c-.07-.05-.1-.17-.1-.34V92.92a.88.88,0,0,1,.1-.45.73.73,0,0,1,.31-.32l.68-.39c.15-.08.25-.1.31-.05s.09.16.09.35V99.2a1,1,0,0,1-.09.44.77.77,0,0,1-.31.31l-.68.39C331.11,100.43,331,100.44,331,100.4Z" style="fill:#306C9A"></path><path d="M334.86,98.14c-.07,0-.1-.16-.1-.34V91.6l-1.48.85q-.21.14-.3.06c-.05,0-.08-.16-.08-.34v-.45a1.08,1.08,0,0,1,.08-.44.76.76,0,0,1,.3-.29l4.46-2.58c.15-.08.25-.1.31,0s.08.16.08.34v.45a1,1,0,0,1-.08.43.69.69,0,0,1-.31.3l-1.48.85v6.21a1,1,0,0,1-.09.44.8.8,0,0,1-.32.31l-.67.39C335,98.17,334.92,98.19,334.86,98.14Z" style="fill:#306C9A"></path><path d="M342.62,92.86c-.57-.4-.86-1.3-.86-2.68a7.55,7.55,0,0,1,.85-3.66A6.08,6.08,0,0,1,345,84a4.58,4.58,0,0,1,1.2-.52,1.67,1.67,0,0,1,.91,0,.13.13,0,0,1,.09.14.6.6,0,0,1-.06.23l-.31.92a.58.58,0,0,1-.13.21.24.24,0,0,1-.15,0,2.11,2.11,0,0,0-1.37.36,3.55,3.55,0,0,0-1.44,1.55,5.18,5.18,0,0,0-.52,2.42c0,1,.18,1.55.54,1.82s.85.22,1.47-.14a4.61,4.61,0,0,0,1.42-1.25.91.91,0,0,1,.16-.17s.08,0,.12.06l.36.61a.27.27,0,0,1,0,.12.47.47,0,0,1-.11.24,6.12,6.12,0,0,1-2.17,1.94C344,93.16,343.2,93.26,342.62,92.86Z" style="fill:#306C9A"></path><path d="M347.67,90.66a1,1,0,0,1,0-.21L350,81.67a1.68,1.68,0,0,1,.14-.36.78.78,0,0,1,.23-.21l.66-.38c.09,0,.16-.07.21,0s.09.09.14.2L353.75,87a1.1,1.1,0,0,1,0,.18.33.33,0,0,1-.16.3l-1.09.63a.28.28,0,0,1-.19.05s-.07-.06-.1-.14l-.42-1.18-2.19,1.27-.41,1.65a.83.83,0,0,1-.1.26.52.52,0,0,1-.19.16l-1.09.63C347.72,90.84,347.67,90.8,347.67,90.66Zm3.8-5-.75-2.16-.76,3Z" style="fill:#306C9A"></path><path d="M354.62,86.73c-.07,0-.1-.16-.1-.34V79.25a.88.88,0,0,1,.1-.45.66.66,0,0,1,.31-.31l2.28-1.32q2.3-1.33,2.3,1.35a4.67,4.67,0,0,1-.27,1.6,4.29,4.29,0,0,1-.81,1.38l.95,2.22a.37.37,0,0,1,0,.15.35.35,0,0,1-.19.33l-1,.58a.3.3,0,0,1-.19.06s-.08,0-.11-.12l-.83-2.17-1.08.62v2.36a1,1,0,0,1-.09.45.75.75,0,0,1-.31.3l-.68.4C354.78,86.76,354.68,86.78,354.62,86.73ZM357,81.17a2.09,2.09,0,0,0,.77-.73,2.12,2.12,0,0,0,.26-1.07q0-.63-.24-.78c-.15-.1-.39-.06-.7.12l-1.08.62v2.41Z" style="fill:#306C9A"></path><path d="M360.34,83.42c-.06,0-.09-.16-.09-.33V75.94a1.06,1.06,0,0,1,.09-.45.8.8,0,0,1,.32-.31l1.89-1.09c1-.6,1.81-.72,2.35-.37s.8,1.23.8,2.64a7.26,7.26,0,0,1-.81,3.56,6,6,0,0,1-2.34,2.35l-1.89,1.1C360.51,83.45,360.41,83.47,360.34,83.42Zm2.28-2.64a3,3,0,0,0,1.21-1.29,5.42,5.42,0,0,0,.39-2.27c0-1-.13-1.57-.39-1.81s-.67-.21-1.21.1l-.88.51v5.27Z" style="fill:#306C9A"></path><g style="opacity:0.15"><path d="M308.31,112.67q-.87-.6-.87-2.67a7.62,7.62,0,0,1,.85-3.67,6.27,6.27,0,0,1,2.41-2.49,5,5,0,0,1,1.2-.52,1.77,1.77,0,0,1,.91,0,.13.13,0,0,1,.09.14.69.69,0,0,1-.06.24l-.31.91a.42.42,0,0,1-.13.21.24.24,0,0,1-.15,0,2.09,2.09,0,0,0-1.37.35,3.61,3.61,0,0,0-1.44,1.55,5.33,5.33,0,0,0-.52,2.42c0,1,.18,1.56.54,1.82s.85.22,1.47-.13a4.94,4.94,0,0,0,1.43-1.26.46.46,0,0,1,.15-.16s.08,0,.13.06l.35.6a.31.31,0,0,1,0,.13.62.62,0,0,1-.1.24,6.33,6.33,0,0,1-2.18,1.93C309.69,113,308.88,113.08,308.31,112.67Z" style="fill:#306C9A"></path><path d="M313.84,110.27c-.06,0-.09-.16-.09-.34v-7.14a1.06,1.06,0,0,1,.09-.45.77.77,0,0,1,.31-.31l2.29-1.32q2.3-1.32,2.29,1.35a4.77,4.77,0,0,1-.27,1.61,4.4,4.4,0,0,1-.8,1.37l.95,2.22a.77.77,0,0,1,0,.15.35.35,0,0,1-.19.33l-1,.58a.4.4,0,0,1-.19.07s-.08,0-.11-.13l-.83-2.17-1.07.62v2.36a1,1,0,0,1-.09.45.8.8,0,0,1-.32.31l-.68.39C314,110.3,313.9,110.32,313.84,110.27Zm2.38-5.56a1.91,1.91,0,0,0,1-1.8c0-.41-.08-.67-.23-.78s-.4-.06-.71.12l-1.07.62v2.41Z" style="fill:#306C9A"></path><path d="M319.57,107c-.07,0-.1-.17-.1-.34V99.49a.88.88,0,0,1,.1-.45.73.73,0,0,1,.31-.32l3.75-2.16q.21-.12.3-.06a.52.52,0,0,1,.08.35v.44a1.13,1.13,0,0,1-.08.45.84.84,0,0,1-.3.29L321,99.57v1.9l1.86-1.08c.15-.08.25-.1.3,0s.08.16.08.34v.42a1,1,0,0,1-.08.45.65.65,0,0,1-.3.29L321,102.91v1.92l2.66-1.53c.14-.09.24-.1.3-.06a.54.54,0,0,1,.08.35V104a1.08,1.08,0,0,1-.08.44.82.82,0,0,1-.3.28l-3.74,2.16C319.73,107,319.63,107,319.57,107Z" style="fill:#306C9A"></path><path d="M324.75,104a.43.43,0,0,1-.09-.33V96.49a1.06,1.06,0,0,1,.09-.45.77.77,0,0,1,.31-.31l1.9-1.09c1-.6,1.81-.72,2.35-.37s.8,1.23.8,2.64a7.26,7.26,0,0,1-.81,3.56,6,6,0,0,1-2.34,2.35l-1.9,1.1C324.92,104,324.81,104,324.75,104Zm2.28-2.64a2.88,2.88,0,0,0,1.2-1.29,5.3,5.3,0,0,0,.4-2.28c0-1-.13-1.56-.4-1.8s-.66-.21-1.2.1l-.88.51v5.27Z" style="fill:#306C9A"></path><path d="M331,100.4c-.07-.05-.1-.17-.1-.34V92.92a.88.88,0,0,1,.1-.45.73.73,0,0,1,.31-.32l.68-.39c.15-.08.25-.1.31-.05s.09.16.09.35V99.2a1,1,0,0,1-.09.44.77.77,0,0,1-.31.31l-.68.39C331.11,100.43,331,100.44,331,100.4Z" style="fill:#306C9A"></path><path d="M334.86,98.14c-.07,0-.1-.16-.1-.34V91.6l-1.48.85q-.21.14-.3.06c-.05,0-.08-.16-.08-.34v-.45a1.08,1.08,0,0,1,.08-.44.76.76,0,0,1,.3-.29l4.46-2.58c.15-.08.25-.1.31,0s.08.16.08.34v.45a1,1,0,0,1-.08.43.69.69,0,0,1-.31.3l-1.48.85v6.21a1,1,0,0,1-.09.44.8.8,0,0,1-.32.31l-.67.39C335,98.17,334.92,98.19,334.86,98.14Z" style="fill:#306C9A"></path><path d="M342.62,92.86c-.57-.4-.86-1.3-.86-2.68a7.55,7.55,0,0,1,.85-3.66A6.08,6.08,0,0,1,345,84a4.58,4.58,0,0,1,1.2-.52,1.67,1.67,0,0,1,.91,0,.13.13,0,0,1,.09.14.6.6,0,0,1-.06.23l-.31.92a.58.58,0,0,1-.13.21.24.24,0,0,1-.15,0,2.11,2.11,0,0,0-1.37.36,3.55,3.55,0,0,0-1.44,1.55,5.18,5.18,0,0,0-.52,2.42c0,1,.18,1.55.54,1.82s.85.22,1.47-.14a4.61,4.61,0,0,0,1.42-1.25.91.91,0,0,1,.16-.17s.08,0,.12.06l.36.61a.27.27,0,0,1,0,.12.47.47,0,0,1-.11.24,6.12,6.12,0,0,1-2.17,1.94C344,93.16,343.2,93.26,342.62,92.86Z" style="fill:#306C9A"></path><path d="M347.67,90.66a1,1,0,0,1,0-.21L350,81.67a1.68,1.68,0,0,1,.14-.36.78.78,0,0,1,.23-.21l.66-.38c.09,0,.16-.07.21,0s.09.09.14.2L353.75,87a1.1,1.1,0,0,1,0,.18.33.33,0,0,1-.16.3l-1.09.63a.28.28,0,0,1-.19.05s-.07-.06-.1-.14l-.42-1.18-2.19,1.27-.41,1.65a.83.83,0,0,1-.1.26.52.52,0,0,1-.19.16l-1.09.63C347.72,90.84,347.67,90.8,347.67,90.66Zm3.8-5-.75-2.16-.76,3Z" style="fill:#306C9A"></path><path d="M354.62,86.73c-.07,0-.1-.16-.1-.34V79.25a.88.88,0,0,1,.1-.45.66.66,0,0,1,.31-.31l2.28-1.32q2.3-1.33,2.3,1.35a4.67,4.67,0,0,1-.27,1.6,4.29,4.29,0,0,1-.81,1.38l.95,2.22a.37.37,0,0,1,0,.15.35.35,0,0,1-.19.33l-1,.58a.3.3,0,0,1-.19.06s-.08,0-.11-.12l-.83-2.17-1.08.62v2.36a1,1,0,0,1-.09.45.75.75,0,0,1-.31.3l-.68.4C354.78,86.76,354.68,86.78,354.62,86.73ZM357,81.17a2.09,2.09,0,0,0,.77-.73,2.12,2.12,0,0,0,.26-1.07q0-.63-.24-.78c-.15-.1-.39-.06-.7.12l-1.08.62v2.41Z" style="fill:#306C9A"></path><path d="M360.34,83.42c-.06,0-.09-.16-.09-.33V75.94a1.06,1.06,0,0,1,.09-.45.8.8,0,0,1,.32-.31l1.89-1.09c1-.6,1.81-.72,2.35-.37s.8,1.23.8,2.64a7.26,7.26,0,0,1-.81,3.56,6,6,0,0,1-2.34,2.35l-1.89,1.1C360.51,83.45,360.41,83.47,360.34,83.42Zm2.28-2.64a3,3,0,0,0,1.21-1.29,5.42,5.42,0,0,0,.39-2.27c0-1-.13-1.57-.39-1.81s-.67-.21-1.21.1l-.88.51v5.27Z" style="fill:#306C9A"></path></g><path d="M316.86,140.25l4-2.32c.52-.3.94-.06.94.54v1.23a2.1,2.1,0,0,1-.94,1.64l-4,2.32c-.52.3-.95.05-.95-.55v-1.23A2.09,2.09,0,0,1,316.86,140.25Z" style="fill:#306C9A"></path><path d="M308,145.36l4-2.32c.52-.3.94-.06.94.55v1.23a2.08,2.08,0,0,1-.94,1.63l-4,2.32c-.52.3-.94.06-.94-.54V147A2.08,2.08,0,0,1,308,145.36Z" style="fill:#306C9A"></path><path d="M358.72,124.6l-50,28.87a3.48,3.48,0,0,0-1.57,2.73v1.48c0,1,.7,1.41,1.57.91l50-28.87a3.53,3.53,0,0,0,1.57-2.73v-1.48C360.29,124.51,359.58,124.1,358.72,124.6Z" style="fill:#306C9A"></path><path d="M316.86,140.25l4-2.32c.52-.3.94-.06.94.54v1.23a2.1,2.1,0,0,1-.94,1.64l-4,2.32c-.52.3-.95.05-.95-.55v-1.23A2.09,2.09,0,0,1,316.86,140.25Z" style="fill:#455a64"></path><path d="M308,145.36l4-2.32c.52-.3.94-.06.94.55v1.23a2.08,2.08,0,0,1-.94,1.63l-4,2.32c-.52.3-.94.06-.94-.54V147A2.08,2.08,0,0,1,308,145.36Z" style="fill:#455a64"></path><path d="M358.72,124.6l-50,28.87a3.48,3.48,0,0,0-1.57,2.73v1.48c0,1,.7,1.41,1.57.91l50-28.87a3.53,3.53,0,0,0,1.57-2.73v-1.48C360.29,124.51,359.58,124.1,358.72,124.6Z" style="fill:#455a64"></path><path d="M308.08,131.35l.19-.11c.56-.33,1,0,1,.77V136a2.57,2.57,0,0,1-1,2l-.16.1c-.57.35-1,0-1-.73v-4A2.42,2.42,0,0,1,308.08,131.35Z" style="fill:#fafafa"></path><path d="M313.36,128.32l.19-.11c.56-.33,1,0,1,.77v3.94a2.54,2.54,0,0,1-1,2l-.16.1c-.57.35-1,0-1-.73v-4A2.45,2.45,0,0,1,313.36,128.32Z" style="fill:#fafafa"></path><path d="M318.64,125.29l.19-.11c.56-.33,1,0,1,.77v3.94a2.54,2.54,0,0,1-1,2l-.15.1c-.58.35-1,0-1-.73v-4A2.45,2.45,0,0,1,318.64,125.29Z" style="fill:#fafafa"></path><path d="M323.92,122.26l.19-.11c.56-.33,1,0,1,.77v3.94a2.56,2.56,0,0,1-1,2l-.16.1c-.58.35-1,0-1-.73v-4A2.45,2.45,0,0,1,323.92,122.26Z" style="fill:#fafafa"></path><path d="M332.78,117.08,333,117c.56-.32,1,0,1,.78v3.94a2.57,2.57,0,0,1-1,2l-.16.09c-.58.36-1,0-1-.73v-4A2.47,2.47,0,0,1,332.78,117.08Z" style="fill:#fafafa"></path><path d="M338.06,114.05l.19-.11c.57-.32,1,0,1,.78v3.94a2.57,2.57,0,0,1-1,2l-.16.09c-.57.36-1,0-1-.73v-4A2.47,2.47,0,0,1,338.06,114.05Z" style="fill:#fafafa"></path><path d="M343.35,111l.18-.11c.57-.32,1,0,1,.78v3.94a2.58,2.58,0,0,1-1,2l-.16.09c-.57.36-1,0-1-.73v-4A2.45,2.45,0,0,1,343.35,111Z" style="fill:#fafafa"></path><path d="M348.63,108l.18-.11c.57-.32,1,0,1,.78v3.94a2.58,2.58,0,0,1-1,2l-.16.09c-.57.36-1,0-1-.73v-4A2.45,2.45,0,0,1,348.63,108Z" style="fill:#fafafa"></path><path d="M357.49,102.81l.18-.1c.57-.33,1,0,1,.77v3.94a2.58,2.58,0,0,1-1,2l-.16.1c-.57.35-1,0-1-.73v-4A2.46,2.46,0,0,1,357.49,102.81Z" style="fill:#fafafa"></path><path d="M362.77,99.78l.18-.1c.57-.33,1,0,1,.77v3.94a2.58,2.58,0,0,1-1,2l-.16.1c-.57.35-1,0-1-.73v-4A2.46,2.46,0,0,1,362.77,99.78Z" style="fill:#fafafa"></path><path d="M368.05,96.75l.19-.1c.56-.33,1,0,1,.77v3.94a2.55,2.55,0,0,1-1,2l-.16.1c-.57.35-1,0-1-.73v-4A2.45,2.45,0,0,1,368.05,96.75Z" style="fill:#fafafa"></path><path d="M373.33,93.72l.19-.1c.56-.33,1,0,1,.77v3.94a2.55,2.55,0,0,1-1,2l-.15.1c-.58.35-1,0-1-.73v-4A2.48,2.48,0,0,1,373.33,93.72Z" style="fill:#fafafa"></path><path d="M382.19,88.55l.19-.11c.56-.33,1,0,1,.78v3.93a2.54,2.54,0,0,1-1,2l-.15.1c-.58.35-1,0-1-.73v-4A2.45,2.45,0,0,1,382.19,88.55Z" style="fill:#fafafa"></path><path d="M387.47,85.52l.19-.11c.56-.33,1,0,1,.78v3.93a2.59,2.59,0,0,1-1,2l-.16.09c-.58.35-1,0-1-.73v-4A2.45,2.45,0,0,1,387.47,85.52Z" style="fill:#fafafa"></path><path d="M392.75,82.49l.19-.11c.57-.33,1,0,1,.78v3.93a2.56,2.56,0,0,1-1,2l-.16.1c-.57.35-1,0-1-.73v-4A2.45,2.45,0,0,1,392.75,82.49Z" style="fill:#fafafa"></path><path d="M398,79.46l.18-.11c.57-.33,1,0,1,.78v3.93a2.57,2.57,0,0,1-1,2l-.16.1c-.57.35-1,0-1-.73v-4A2.43,2.43,0,0,1,398,79.46Z" style="fill:#fafafa"></path></g><polygon points="301.73 104.09 297.6 101.71 297.6 122.22 301.73 124.57 301.73 104.09" style="fill:#263238"></polygon></g><path d="M301.74,132.9h0l-4.12-2.41-12,11.57a1.69,1.69,0,0,0,.34,2.7c.05,0,3.34,1.95,4,2.3a2.53,2.53,0,0,0,1.32.28l10.52-2a87.1,87.1,0,0,0,0-12.41Z" style="fill:#306C9A"></path><path d="M289.89,147.05c-.62-.35-3.91-2.28-4-2.3a1.69,1.69,0,0,1-.34-2.7l12-11.57,4.13,2.42-12,11.55A1.7,1.7,0,0,0,289.89,147.05Z" style="fill:#fff;opacity:0.5"></path></g></g></svg>