<?xml version="1.0"?>
<svg xmlns="http://www.w3.org/2000/svg" xmlns:xlink="http://www.w3.org/1999/xlink" xmlns:svgjs="http://svgjs.com/svgjs" version="1.1" width="280" height="260" x="0" y="0" viewBox="0 0 280.00001 260" style="enable-background:new 0 0 512 512" xml:space="preserve" class=""><g transform="matrix(1,0,0,1,0,0)"><path xmlns="http://www.w3.org/2000/svg" d="m512 27.644531v345.316407c0 15.269531-12.375 27.644531-27.644531 27.644531h-387.152344c-15.269531 0-27.644531-12.375-27.644531-27.644531v-345.316407c0-15.269531 12.375-27.644531 27.644531-27.644531h387.152344c15.269531 0 27.644531 12.375 27.644531 27.644531zm0 0" fill="#c4e2f2" data-original="#c4e2f2" style="" class=""/><path xmlns="http://www.w3.org/2000/svg" d="m126.03125 343.578125h36.167969v57.027344h-36.167969zm0 0" fill="#83b2c6" data-original="#83b2c6" style=""/><path xmlns="http://www.w3.org/2000/svg" d="m197.679688 280.820312h36.15625v119.785157h-36.15625zm0 0" fill="#83b2c6" data-original="#83b2c6" style=""/><path xmlns="http://www.w3.org/2000/svg" d="m511.996094 27.644531v33.019531h-442.441406v-33.019531c0-15.269531 12.371093-27.644531 27.644531-27.644531h387.152343c15.269532 0 27.644532 12.375 27.644532 27.644531zm0 0" fill="#83b2c6" data-original="#83b2c6" style=""/><path xmlns="http://www.w3.org/2000/svg" d="m106.15625 40.269531c-7.28125 0-10.558594-9.476562-4.851562-14.003906 5.59375-4.433594 13.964843.71875 12.550781 7.6875-.738281 3.625-3.992188 6.316406-7.699219 6.316406zm0 0" fill="#e5e5e5" data-original="#e5e5e5" style=""/><path xmlns="http://www.w3.org/2000/svg" d="m159.5 40.269531c-7.195312 0-10.53125-9.324219-4.96875-13.90625 2.542969-2.09375 6.257812-2.347656 9.070312-.628906 2.839844 1.738281 4.304688 5.222656 3.546876 8.460937-.824219 3.511719-4.03125 6.074219-7.648438 6.074219zm0 0" fill="#e5e5e5" data-original="#e5e5e5" style=""/><path xmlns="http://www.w3.org/2000/svg" d="m132.839844 40.269531c-3.203125 0-6.152344-2.019531-7.316406-4.996093-1.261719-3.226563-.183594-7.003907 2.578124-9.101563 5.75-4.363281 14.144532 1.144531 12.335938 8.179687-.882812 3.425782-4.046875 5.917969-7.597656 5.917969zm0 0" fill="#e5e5e5" data-original="#e5e5e5" style=""/><path xmlns="http://www.w3.org/2000/svg" d="m416.285156 229.054688c0 69.316406-56.191406 125.507812-125.515625 125.507812-20.5 0-39.839843-4.917969-56.933593-13.628906-13.691407-6.976563-25.9375-16.402344-36.15625-27.699219-20.148438-22.269531-32.414063-51.785156-32.414063-84.179687 0-69.316407 56.1875-125.503907 125.503906-125.503907v125.503907l99.082031-77.042969c16.570313 21.273437 26.433594 48.007812 26.433594 77.042969zm0 0" fill="#ff491f" data-original="#ff491f" style=""/><path xmlns="http://www.w3.org/2000/svg" d="m233.835938 280.820312v60.113282c-13.691407-6.976563-25.9375-16.402344-36.15625-27.699219v-32.414063zm0 0" fill="#ed3618" data-original="#ed3618" style=""/><path xmlns="http://www.w3.org/2000/svg" d="m401.957031 93.789062-99.085937 76.78125v-125.070312c40.269531 0 76.125 18.90625 99.085937 48.289062zm0 0" fill="#83b2c6" data-original="#83b2c6" style=""/><path xmlns="http://www.w3.org/2000/svg" d="m416.277344 229.050781c0 41.847657-20.488282 78.917969-51.984375 101.71875l-73.519531-101.71875 99.074218-77.046875c16.566406 21.277344 26.429688 48.011719 26.429688 77.046875zm0 0" fill="#2c92bf" data-original="#2c92bf" style="" class=""/><path xmlns="http://www.w3.org/2000/svg" d="m417.644531 93.789062-99.082031 76.78125v-125.070312c40.269531 0 76.125 18.90625 99.082031 48.289062zm0 0" fill="#ff8e1d" data-original="#ff8e1d" style=""/><g xmlns="http://www.w3.org/2000/svg" fill="#32cc77"><path d="m0 244.738281h36.167969v234.402344h-36.167969zm0 0" fill="#32cc77" data-original="#32cc77" style="" class=""/><path d="m69.554688 191.398438h36.164062v287.742187h-36.164062zm0 0" fill="#32cc77" data-original="#32cc77" style="" class=""/><path d="m141.722656 343.578125h36.167969v135.5625h-36.167969zm0 0" fill="#32cc77" data-original="#32cc77" style="" class=""/><path d="m213.363281 280.824219h36.167969v198.316406h-36.167969zm0 0" fill="#32cc77" data-original="#32cc77" style="" class=""/></g><path xmlns="http://www.w3.org/2000/svg" d="m484.863281 370.503906h-83.152343c-4.332032 0-7.84375-3.511718-7.84375-7.84375 0-4.332031 3.511718-7.84375 7.84375-7.84375h83.148437c4.335937 0 7.847656 3.511719 7.847656 7.84375 0 4.332032-3.511719 7.84375-7.84375 7.84375zm0 0" fill="#ff491f" data-original="#ff491f" style=""/><path xmlns="http://www.w3.org/2000/svg" d="m484.863281 337.304688h-58.050781c-4.332031 0-7.84375-3.511719-7.84375-7.847657 0-4.332031 3.511719-7.84375 7.84375-7.84375h58.050781c4.332031 0 7.84375 3.511719 7.84375 7.84375 0 4.335938-3.511719 7.847657-7.84375 7.847657zm0 0" fill="#ff8e1d" data-original="#ff8e1d" style=""/></g></svg>
